<?xml version="1.0" standalone="no"?>
<!DOCTYPE svg PUBLIC "-//W3C//DTD SVG 20010904//EN"
 "http://www.w3.org/TR/2001/REC-SVG-20010904/DTD/svg10.dtd">
<svg version="1.0" xmlns="http://www.w3.org/2000/svg"
 width="1024.000000pt" height="1024.000000pt" viewBox="0 0 1024.000000 1024.000000"
 preserveAspectRatio="xMidYMid meet">
<metadata>
Created by potrace 1.14, written by Peter Selinger 2001-2017
</metadata>
<g transform="translate(0.000000,1024.000000) scale(0.100000,-0.100000)"
fill="#000000" stroke="none">
<path d="M2470 5125 c0 -4052 3 -5115 13 -5116 22 -1 101 3 132 7 17 2 56 6
88 9 32 3 72 8 90 10 18 3 55 7 82 10 28 3 64 7 80 10 17 2 57 7 90 10 33 3
78 8 100 11 22 3 58 6 80 8 148 13 183 17 205 21 14 2 66 7 115 10 50 3 119 8
155 11 120 9 184 14 280 19 52 3 115 7 140 10 25 2 88 7 140 10 52 4 97 9 99
11 8 8 11 115 14 490 2 214 7 395 10 401 4 7 4 14 0 16 -7 4 -9 339 -3 447 2
37 1 408 -1 650 0 80 -1 152 0 160 0 8 0 71 0 140 -1 69 -1 132 0 140 1 8 1
26 0 40 0 14 -1 30 0 35 0 6 1 410 2 898 0 489 2 887 4 885 3 -3 136 -397 139
-413 4 -17 27 -89 36 -110 11 -27 22 -58 26 -70 4 -16 184 -559 191 -575 3 -8
7 -19 8 -25 2 -5 22 -66 45 -135 23 -69 43 -132 45 -140 2 -8 4 -16 5 -17 2
-2 3 -6 4 -10 3 -13 47 -145 71 -213 12 -36 30 -90 40 -120 9 -30 20 -64 25
-75 8 -18 111 -337 117 -360 1 -5 14 -44 28 -85 15 -41 28 -82 30 -90 2 -8 4
-15 5 -15 1 0 3 -7 5 -15 2 -13 45 -144 140 -435 15 -44 28 -84 29 -90 2 -5 6
-17 9 -25 11 -30 69 -215 73 -234 3 -18 88 -282 101 -316 4 -8 7 -17 8 -20 0
-3 11 -36 23 -75 56 -172 123 -381 163 -507 l44 -138 55 -1 c30 0 71 -2 90 -4
82 -6 330 -19 387 -19 35 -1 63 -4 63 -7 0 -3 19 -6 43 -6 110 -3 169 -8 173
-15 3 -5 9 -6 14 -3 8 5 198 -8 305 -20 54 -7 138 -15 210 -20 33 -3 92 -10
131 -15 39 -6 93 -13 120 -15 92 -8 140 -14 169 -20 17 -3 69 -8 116 -11 84
-6 86 -6 92 17 3 13 6 2315 5 5116 l-1 5093 -949 0 -948 0 0 -47 c-1 -27 -2
-912 -4 -1968 -1 -1056 -4 -1924 -5 -1930 -2 -5 -2 -12 -1 -15 6 -16 4 -478
-3 -471 -5 5 -10 15 -11 22 -2 8 -8 27 -14 42 -7 16 -12 34 -12 41 0 7 -3 16
-7 20 -5 4 -8 11 -9 14 -3 22 -18 69 -27 80 -5 6 -6 12 -2 12 4 0 2 6 -4 13
-6 8 -8 17 -4 20 3 4 1 12 -4 19 -15 19 -42 105 -35 112 3 3 1 6 -5 6 -5 0
-10 6 -10 13 -1 6 -20 66 -43 132 -22 66 -47 140 -55 165 -7 25 -43 133 -80
240 -36 107 -67 203 -68 213 -1 9 -4 17 -7 17 -4 0 -12 24 -19 53 -8 28 -18
57 -23 64 -5 7 -7 17 -3 23 3 5 1 10 -4 10 -6 0 -10 3 -9 8 1 4 -22 79 -52
167 -30 88 -55 165 -56 170 -2 6 -19 57 -39 115 -20 58 -38 110 -39 115 -2 6
-6 17 -9 25 -3 8 -13 38 -21 65 -14 48 -69 212 -122 365 -14 41 -27 80 -28 85
-1 6 -11 35 -21 65 -11 30 -20 57 -20 60 -2 11 -116 350 -139 413 -13 37 -22
67 -20 67 3 0 -2 14 -11 30 -9 17 -13 30 -11 30 3 0 -2 17 -10 37 -9 20 -18
46 -20 56 -3 17 -19 64 -42 127 -3 8 -6 18 -7 23 -2 4 -4 9 -5 12 -1 3 -4 10
-5 15 -1 6 -3 11 -5 13 -1 1 -3 9 -5 17 -2 8 -22 69 -45 135 -22 66 -43 128
-45 139 -4 16 -22 69 -43 126 -3 8 -6 18 -7 23 -2 4 -4 9 -5 12 -1 3 -3 8 -4
13 -3 11 -27 85 -33 102 -4 8 -5 21 -4 28 1 6 -3 12 -9 12 -5 0 -10 6 -10 13
0 7 -18 68 -41 137 -22 69 -41 130 -42 135 -1 6 -4 12 -7 15 -3 3 -14 33 -25
68 l-18 62 -954 0 -953 0 0 -5115z"/>
</g>
</svg>
